<svg xmlns="http://www.w3.org/2000/svg" width="160" height="64" viewBox="0 0 160 64">
  <defs>
    <linearGradient id="soon-grad" x1="0%" y1="0%" x2="100%" y2="100%">
      <stop offset="0%" stop-color="#E28743" />
      <stop offset="100%" stop-color="#B85A1C" />
    </linearGradient>
    <filter id="shadow" x="-10%" y="-10%" width="120%" height="120%">
      <feDropShadow dx="0" dy="2" stdDeviation="3" flood-opacity="0.25"/>
    </filter>
  </defs>
  <rect width="160" height="64" rx="12" fill="url(#soon-grad)" filter="url(#shadow)"/>
  
  <!-- YouTube Logo -->
  <g transform="translate(18, 12)" fill="#FFFFFF">
    <path d="M16 2.5 C10 2.5 4 3 2 4 C0 4.5 0 7 0 10 C0 13 0 15.5 2 16 C4 17 10 17.5 16 17.5 C22 17.5 28 17 30 16 C32 15.5 32 13 32 10 C32 7 32 4.5 30 4 C28 3 22 2.5 16 2.5 Z M12 6.5 L21 10 L12 13.5 Z"/>
  </g>
  
  <text x="76" y="24" font-family="'Outfit', 'Inter', system-ui, sans-serif" font-weight="700" font-size="13" fill="#FFFFFF" letter-spacing="1">YOUTUBE</text>
  <text x="80" y="47" font-family="'Outfit', 'Inter', system-ui, sans-serif" font-weight="800" font-size="11" fill="#FFFFFF" text-anchor="middle" letter-spacing="0.5">COMING SOON</text>
</svg>
